# xmcd CD database file
# Copyright (C) 1993-1998 Ti Kan
#
# Track frame offsets:
#	150
#	19197
#	28055
#	37750
#	48025
#	59425
#	71275
#	82450
#	92875
#	103975
#	112525
#	121775
#
# Disc length: 1765 seconds
#
# Revision: 0
# Processed by: cddbd v1.4b41PL1 Copyright (c) Steve Scherf et al.
# Submitted via: CDmax 1.5.3
#
DISCID=9306e30c
DTITLE=The Hollies - In The Hollies Style
DYEAR=1900
DGENRE=
TTITLE0=Medley: Nitty Gritty/Something's Got A Hold On Me
TTITLE1=
TTITLE2=
TTITLE3=
TTITLE4=
TTITLE5=
TTITLE6=
TTITLE7=
TTITLE8=
TTITLE9=
TTITLE10=
TTITLE11=
EXTD=
EXTT0=
EXTT1=
EXTT2=
EXTT3=
EXTT4=
EXTT5=
EXTT6=
EXTT7=
EXTT8=
EXTT9=
EXTT10=
EXTT11=
PLAYORDER=
